<svg xmlns="http://www.w3.org/2000/svg" xmlns:xlink="http://www.w3.org/1999/xlink" width="500" zoomAndPan="magnify" viewBox="0 0 375 149.999998" height="200" preserveAspectRatio="xMidYMid meet" version="1.0"><defs><filter x="0%" y="0%" width="100%" height="100%" id="861b5aee74"><feColorMatrix values="0 0 0 0 1 0 0 0 0 1 0 0 0 0 1 0 0 0 1 0" color-interpolation-filters="sRGB"/></filter><g/><clipPath id="ec469dfe34"><path d="M 10.753906 0.5 L 139.757812 0.5 L 139.757812 129.5 L 10.753906 129.5 Z M 10.753906 0.5 " clip-rule="nonzero"/></clipPath><clipPath id="8a3b0bdba0"><path d="M 75.253906 0.5 C 39.632812 0.5 10.753906 29.375 10.753906 65 C 10.753906 100.625 39.632812 129.5 75.253906 129.5 C 110.878906 129.5 139.757812 100.625 139.757812 65 C 139.757812 29.375 110.878906 0.5 75.253906 0.5 Z M 75.253906 0.5 " clip-rule="nonzero"/></clipPath><clipPath id="0b6611916d"><path d="M 0.753906 0.5 L 129.757812 0.5 L 129.757812 129.5 L 0.753906 129.5 Z M 0.753906 0.5 " clip-rule="nonzero"/></clipPath><clipPath id="8477303472"><path d="M 65.253906 0.5 C 29.632812 0.5 0.753906 29.375 0.753906 65 C 0.753906 100.625 29.632812 129.5 65.253906 129.5 C 100.878906 129.5 129.757812 100.625 129.757812 65 C 129.757812 29.375 100.878906 0.5 65.253906 0.5 Z M 65.253906 0.5 " clip-rule="nonzero"/></clipPath><clipPath id="c639e5b8d8"><rect x="0" width="130" y="0" height="130"/></clipPath><mask id="989eb0c3db"><g filter="url(#861b5aee74)"><rect x="-82.5" width="540" fill="#000000" y="-42.999999" height="215.999996" fill-opacity="0.95"/></g></mask><clipPath id="0c934ab4f4"><path d="M 0 1 L 144 1 L 144 3.359375 L 0 3.359375 Z M 0 1 " clip-rule="nonzero"/></clipPath><clipPath id="4b17995519"><rect x="0" width="144" y="0" height="4"/></clipPath><mask id="89dfc6e506"><g filter="url(#861b5aee74)"><rect x="-82.5" width="540" fill="#000000" y="-42.999999" height="215.999996" fill-opacity="0.95"/></g></mask><clipPath id="0e5807a92d"><path d="M 0 0.839844 L 144 0.839844 L 144 3 L 0 3 Z M 0 0.839844 " clip-rule="nonzero"/></clipPath><clipPath id="1f847870fb"><rect x="0" width="144" y="0" height="3"/></clipPath><mask id="bf9c9c016b"><g filter="url(#861b5aee74)"><rect x="-82.5" width="540" fill="#000000" y="-42.999999" height="215.999996" fill-opacity="0.95"/></g></mask><clipPath id="36b365a69d"><path d="M 0 0.71875 L 143.761719 0.71875 L 143.761719 2.640625 L 0 2.640625 Z M 0 0.71875 " clip-rule="nonzero"/></clipPath><clipPath id="b120051819"><rect x="0" width="144" y="0" height="3"/></clipPath><mask id="295d064164"><g filter="url(#861b5aee74)"><rect x="-82.5" width="540" fill="#000000" y="-42.999999" height="215.999996" fill-opacity="0.95"/></g></mask><clipPath id="260e48889c"><path d="M 0 0.359375 L 143.761719 0.359375 L 143.761719 2.28125 L 0 2.28125 Z M 0 0.359375 " clip-rule="nonzero"/></clipPath><clipPath id="a97261ad6a"><rect x="0" width="144" y="0" height="3"/></clipPath><mask id="b22893a04a"><g filter="url(#861b5aee74)"><rect x="-82.5" width="540" fill="#000000" y="-42.999999" height="215.999996" fill-opacity="0.95"/></g></mask><clipPath id="6ab5664577"><path d="M 0 0.238281 L 143.761719 0.238281 L 143.761719 1.921875 L 0 1.921875 Z M 0 0.238281 " clip-rule="nonzero"/></clipPath><clipPath id="b89923b4f7"><rect x="0" width="144" y="0" height="2"/></clipPath><mask id="f51e0342bf"><g filter="url(#861b5aee74)"><rect x="-82.5" width="540" fill="#000000" y="-42.999999" height="215.999996" fill-opacity="0.95"/></g></mask><clipPath id="6789b267dc"><path d="M 0 0.121094 L 143.761719 0.121094 L 143.761719 1.558594 L 0 1.558594 Z M 0 0.121094 " clip-rule="nonzero"/></clipPath><clipPath id="31b3c93be4"><rect x="0" width="144" y="0" height="2"/></clipPath><clipPath id="babd90ad36"><rect x="0" width="370" y="0" height="130"/></clipPath></defs><rect x="-37.5" width="450" fill="#ffffff" y="-15" height="179.999997" fill-opacity="1"/><rect x="-37.5" width="450" fill="#f7f6f3" y="-15" height="179.999997" fill-opacity="1"/><g transform="matrix(1, 0, 0, 1, 0, 10)"><g clip-path="url(#babd90ad36)"><g clip-path="url(#ec469dfe34)"><g clip-path="url(#8a3b0bdba0)"><g transform="matrix(1, 0, 0, 1, 10, -0.000000000000007105)"><g clip-path="url(#c639e5b8d8)"><g clip-path="url(#0b6611916d)"><g clip-path="url(#8477303472)"><path fill="#000000" d="M 0.753906 0.5 L 129.757812 0.5 L 129.757812 129.5 L 0.753906 129.5 Z M 0.753906 0.5 " fill-opacity="1" fill-rule="nonzero"/></g></g></g></g></g></g><g fill="#201e1f" fill-opacity="1"><g transform="translate(152.197007, 104.803651)"><g><path d="M 16.015625 0.359375 C 13.410156 0.359375 11.078125 -0.0625 9.015625 -0.90625 C 6.960938 -1.75 5.316406 -3 4.078125 -4.65625 C 2.847656 -6.3125 2.195312 -8.304688 2.125 -10.640625 L 11.359375 -10.640625 C 11.492188 -9.328125 11.945312 -8.320312 12.71875 -7.625 C 13.5 -6.9375 14.515625 -6.59375 15.765625 -6.59375 C 17.046875 -6.59375 18.054688 -6.882812 18.796875 -7.46875 C 19.546875 -8.0625 19.921875 -8.882812 19.921875 -9.9375 C 19.921875 -10.8125 19.625 -11.535156 19.03125 -12.109375 C 18.4375 -12.679688 17.707031 -13.15625 16.84375 -13.53125 C 15.988281 -13.90625 14.765625 -14.328125 13.171875 -14.796875 C 10.878906 -15.503906 9.003906 -16.210938 7.546875 -16.921875 C 6.097656 -17.640625 4.847656 -18.691406 3.796875 -20.078125 C 2.753906 -21.460938 2.234375 -23.269531 2.234375 -25.5 C 2.234375 -28.8125 3.429688 -31.40625 5.828125 -33.28125 C 8.222656 -35.15625 11.347656 -36.09375 15.203125 -36.09375 C 19.128906 -36.09375 22.289062 -35.15625 24.6875 -33.28125 C 27.082031 -31.40625 28.363281 -28.789062 28.53125 -25.4375 L 19.15625 -25.4375 C 19.09375 -26.59375 18.671875 -27.5 17.890625 -28.15625 C 17.117188 -28.8125 16.125 -29.140625 14.90625 -29.140625 C 13.851562 -29.140625 13.003906 -28.859375 12.359375 -28.296875 C 11.722656 -27.742188 11.40625 -26.945312 11.40625 -25.90625 C 11.40625 -24.75 11.945312 -23.847656 13.03125 -23.203125 C 14.113281 -22.566406 15.800781 -21.878906 18.09375 -21.140625 C 20.394531 -20.359375 22.257812 -19.613281 23.6875 -18.90625 C 25.125 -18.195312 26.367188 -17.164062 27.421875 -15.8125 C 28.472656 -14.457031 29 -12.71875 29 -10.59375 C 29 -8.5625 28.484375 -6.71875 27.453125 -5.0625 C 26.421875 -3.40625 24.921875 -2.085938 22.953125 -1.109375 C 20.992188 -0.128906 18.679688 0.359375 16.015625 0.359375 Z M 16.015625 0.359375 "/></g></g></g><g fill="#201e1f" fill-opacity="1"><g transform="translate(188.183135, 104.803651)"><g><path d="M 28.734375 -35.578125 L 28.734375 -28.640625 L 19.3125 -28.640625 L 19.3125 0 L 10.640625 0 L 10.640625 -28.640625 L 1.21875 -28.640625 L 1.21875 -35.578125 Z M 28.734375 -35.578125 "/></g></g></g><g fill="#201e1f" fill-opacity="1"><g transform="translate(222.952847, 104.803651)"><g><path d="M 11.65625 -35.578125 L 11.65625 -14.296875 C 11.65625 -12.160156 12.175781 -10.519531 13.21875 -9.375 C 14.269531 -8.226562 15.8125 -7.65625 17.84375 -7.65625 C 19.875 -7.65625 21.425781 -8.226562 22.5 -9.375 C 23.582031 -10.519531 24.125 -12.160156 24.125 -14.296875 L 24.125 -35.578125 L 32.796875 -35.578125 L 32.796875 -14.34375 C 32.796875 -11.164062 32.117188 -8.476562 30.765625 -6.28125 C 29.410156 -4.082031 27.59375 -2.425781 25.3125 -1.3125 C 23.03125 -0.195312 20.488281 0.359375 17.6875 0.359375 C 14.882812 0.359375 12.375 -0.1875 10.15625 -1.28125 C 7.945312 -2.382812 6.195312 -4.039062 4.90625 -6.25 C 3.625 -8.46875 2.984375 -11.164062 2.984375 -14.34375 L 2.984375 -35.578125 Z M 11.65625 -35.578125 "/></g></g></g><g fill="#201e1f" fill-opacity="1"><g transform="translate(263.500535, 104.803651)"><g><path d="M 16.46875 -35.578125 C 20.21875 -35.578125 23.492188 -34.832031 26.296875 -33.34375 C 29.109375 -31.863281 31.28125 -29.78125 32.8125 -27.09375 C 34.351562 -24.40625 35.125 -21.304688 35.125 -17.796875 C 35.125 -14.316406 34.351562 -11.222656 32.8125 -8.515625 C 31.28125 -5.804688 29.101562 -3.707031 26.28125 -2.21875 C 23.457031 -0.738281 20.1875 0 16.46875 0 L 3.140625 0 L 3.140625 -35.578125 Z M 15.921875 -7.5 C 19.191406 -7.5 21.738281 -8.394531 23.5625 -10.1875 C 25.394531 -11.976562 26.3125 -14.515625 26.3125 -17.796875 C 26.3125 -21.066406 25.394531 -23.613281 23.5625 -25.4375 C 21.738281 -27.269531 19.191406 -28.1875 15.921875 -28.1875 L 11.8125 -28.1875 L 11.8125 -7.5 Z M 15.921875 -7.5 "/></g></g></g><g fill="#201e1f" fill-opacity="1"><g transform="translate(305.163279, 104.803651)"><g><path d="M 11.8125 -35.578125 L 11.8125 0 L 3.140625 0 L 3.140625 -35.578125 Z M 11.8125 -35.578125 "/></g></g></g><g fill="#201e1f" fill-opacity="1"><g transform="translate(324.930517, 104.803651)"><g><path d="M 19.96875 0.359375 C 16.625 0.359375 13.554688 -0.414062 10.765625 -1.96875 C 7.984375 -3.53125 5.769531 -5.703125 4.125 -8.484375 C 2.488281 -11.273438 1.671875 -14.410156 1.671875 -17.890625 C 1.671875 -21.367188 2.488281 -24.492188 4.125 -27.265625 C 5.769531 -30.035156 7.984375 -32.195312 10.765625 -33.75 C 13.554688 -35.3125 16.625 -36.09375 19.96875 -36.09375 C 23.3125 -36.09375 26.378906 -35.3125 29.171875 -33.75 C 31.960938 -32.195312 34.160156 -30.035156 35.765625 -27.265625 C 37.367188 -24.492188 38.171875 -21.367188 38.171875 -17.890625 C 38.171875 -14.410156 37.359375 -11.273438 35.734375 -8.484375 C 34.109375 -5.703125 31.910156 -3.53125 29.140625 -1.96875 C 26.367188 -0.414062 23.3125 0.359375 19.96875 0.359375 Z M 19.96875 -7.546875 C 22.8125 -7.546875 25.082031 -8.492188 26.78125 -10.390625 C 28.488281 -12.285156 29.34375 -14.785156 29.34375 -17.890625 C 29.34375 -21.035156 28.488281 -23.546875 26.78125 -25.421875 C 25.082031 -27.296875 22.8125 -28.234375 19.96875 -28.234375 C 17.09375 -28.234375 14.800781 -27.300781 13.09375 -25.4375 C 11.394531 -23.582031 10.546875 -21.066406 10.546875 -17.890625 C 10.546875 -14.742188 11.394531 -12.234375 13.09375 -10.359375 C 14.800781 -8.484375 17.09375 -7.546875 19.96875 -7.546875 Z M 19.96875 -7.546875 "/></g></g></g><g mask="url(#989eb0c3db)"><g transform="matrix(1, 0, 0, 1, 0, 26)"><g clip-path="url(#4b17995519)"><g clip-path="url(#0c934ab4f4)"><path stroke-linecap="butt" transform="matrix(0.223017, 0, 0, 0.223017, 0.135904, 1.077576)" fill="none" stroke-linejoin="miter" d="M 0.00365404 4.994386 L 640.003087 4.994386 " stroke="#f7f6f3" stroke-width="10" stroke-opacity="1" stroke-miterlimit="4"/></g></g></g></g><g mask="url(#89dfc6e506)"><g transform="matrix(1, 0, 0, 1, 0, 41)"><g clip-path="url(#1f847870fb)"><g clip-path="url(#0e5807a92d)"><path stroke-linecap="butt" transform="matrix(0.223017, 0, 0, 0.223017, 0.000003125, 0.908176)" fill="none" stroke-linejoin="miter" d="M -0.0000140124 4.492849 L 639.999419 4.492849 " stroke="#f7f6f3" stroke-width="9" stroke-opacity="1" stroke-miterlimit="4"/></g></g></g></g><g mask="url(#bf9c9c016b)"><g transform="matrix(1, 0, 0, 1, 0, 56)"><g clip-path="url(#b120051819)"><g clip-path="url(#36b365a69d)"><path stroke-linecap="butt" transform="matrix(0.223017, 0, 0, 0.223017, 0.135904, 0.738777)" fill="none" stroke-linejoin="miter" d="M 0.00365404 3.991313 L 640.003087 3.991313 " stroke="#f7f6f3" stroke-width="8" stroke-opacity="1" stroke-miterlimit="4"/></g></g></g></g><g mask="url(#295d064164)"><g transform="matrix(1, 0, 0, 1, 0, 71)"><g clip-path="url(#a97261ad6a)"><g clip-path="url(#260e48889c)"><path stroke-linecap="butt" transform="matrix(0.223017, 0, 0, 0.223017, 0.000003125, 0.569375)" fill="none" stroke-linejoin="miter" d="M -0.0000140124 3.507308 L 639.999419 3.507308 " stroke="#f7f6f3" stroke-width="7" stroke-opacity="1" stroke-miterlimit="4"/></g></g></g></g><g mask="url(#b22893a04a)"><g transform="matrix(1, 0, 0, 1, 0, 86)"><g clip-path="url(#b89923b4f7)"><g clip-path="url(#6ab5664577)"><path stroke-linecap="butt" transform="matrix(0.223017, 0, 0, 0.223017, 0.135904, 0.399979)" fill="none" stroke-linejoin="miter" d="M 0.00365404 3.005755 L 640.003087 3.005755 " stroke="#f7f6f3" stroke-width="6" stroke-opacity="1" stroke-miterlimit="4"/></g></g></g></g><g mask="url(#f51e0342bf)"><g transform="matrix(1, 0, 0, 1, 0, 101)"><g clip-path="url(#31b3c93be4)"><g clip-path="url(#6789b267dc)"><path stroke-linecap="butt" transform="matrix(0.223017, 0, 0, 0.223017, 0.135904, 0.230577)" fill="none" stroke-linejoin="miter" d="M 0.00365404 2.504235 L 640.003087 2.504235 " stroke="#f7f6f3" stroke-width="5" stroke-opacity="1" stroke-miterlimit="4"/></g></g></g></g><g fill="#000000" fill-opacity="1"><g transform="translate(152.579603, 60.128849)"><g><path d="M 18.6875 -7.265625 L 18.6875 0 L 14.328125 0 C 11.222656 0 8.800781 -0.757812 7.0625 -2.28125 C 5.320312 -3.800781 4.453125 -6.28125 4.453125 -9.71875 L 4.453125 -20.84375 L 1.046875 -20.84375 L 1.046875 -27.953125 L 4.453125 -27.953125 L 4.453125 -34.765625 L 13.03125 -34.765625 L 13.03125 -27.953125 L 18.640625 -27.953125 L 18.640625 -20.84375 L 13.03125 -20.84375 L 13.03125 -9.625 C 13.03125 -8.78125 13.226562 -8.175781 13.625 -7.8125 C 14.03125 -7.445312 14.695312 -7.265625 15.625 -7.265625 Z M 18.6875 -7.265625 "/></g></g></g><g fill="#000000" fill-opacity="1"><g transform="translate(177.174839, 60.128849)"><g><path d="M 1.40625 -14.03125 C 1.40625 -16.894531 1.945312 -19.410156 3.03125 -21.578125 C 4.113281 -23.753906 5.585938 -25.425781 7.453125 -26.59375 C 9.328125 -27.769531 11.414062 -28.359375 13.71875 -28.359375 C 15.695312 -28.359375 17.425781 -27.957031 18.90625 -27.15625 C 20.394531 -26.351562 21.539062 -25.300781 22.34375 -24 L 22.34375 -27.953125 L 30.90625 -27.953125 L 30.90625 0 L 22.34375 0 L 22.34375 -3.953125 C 21.507812 -2.648438 20.347656 -1.597656 18.859375 -0.796875 C 17.367188 0.00390625 15.640625 0.40625 13.671875 0.40625 C 11.398438 0.40625 9.328125 -0.1875 7.453125 -1.375 C 5.585938 -2.5625 4.113281 -4.25 3.03125 -6.4375 C 1.945312 -8.625 1.40625 -11.15625 1.40625 -14.03125 Z M 22.34375 -13.96875 C 22.34375 -16.113281 21.75 -17.800781 20.5625 -19.03125 C 19.375 -20.269531 17.929688 -20.890625 16.234375 -20.890625 C 14.523438 -20.890625 13.078125 -20.28125 11.890625 -19.0625 C 10.710938 -17.84375 10.125 -16.164062 10.125 -14.03125 C 10.125 -11.882812 10.710938 -10.1875 11.890625 -8.9375 C 13.078125 -7.6875 14.523438 -7.0625 16.234375 -7.0625 C 17.929688 -7.0625 19.375 -7.675781 20.5625 -8.90625 C 21.75 -10.144531 22.34375 -11.832031 22.34375 -13.96875 Z M 22.34375 -13.96875 "/></g></g></g><g fill="#000000" fill-opacity="1"><g transform="translate(215.445084, 60.128849)"><g><path d="M 11.671875 -24 C 12.472656 -25.300781 13.625 -26.351562 15.125 -27.15625 C 16.625 -27.957031 18.34375 -28.359375 20.28125 -28.359375 C 22.59375 -28.359375 24.679688 -27.769531 26.546875 -26.59375 C 28.421875 -25.425781 29.898438 -23.753906 30.984375 -21.578125 C 32.066406 -19.410156 32.609375 -16.894531 32.609375 -14.03125 C 32.609375 -11.15625 32.066406 -8.625 30.984375 -6.4375 C 29.898438 -4.25 28.421875 -2.5625 26.546875 -1.375 C 24.679688 -0.1875 22.59375 0.40625 20.28125 0.40625 C 18.3125 0.40625 16.59375 0.015625 15.125 -0.765625 C 13.65625 -1.554688 12.503906 -2.601562 11.671875 -3.90625 L 11.671875 0 L 3.109375 0 L 3.109375 -37.0625 L 11.671875 -37.0625 Z M 23.890625 -14.03125 C 23.890625 -16.164062 23.296875 -17.84375 22.109375 -19.0625 C 20.929688 -20.28125 19.472656 -20.890625 17.734375 -20.890625 C 16.023438 -20.890625 14.578125 -20.269531 13.390625 -19.03125 C 12.210938 -17.800781 11.625 -16.113281 11.625 -13.96875 C 11.625 -11.832031 12.210938 -10.144531 13.390625 -8.90625 C 14.578125 -7.675781 16.023438 -7.0625 17.734375 -7.0625 C 19.429688 -7.0625 20.878906 -7.6875 22.078125 -8.9375 C 23.285156 -10.1875 23.890625 -11.882812 23.890625 -14.03125 Z M 23.890625 -14.03125 "/></g></g></g></g></g></svg>