<svg xmlns="http://www.w3.org/2000/svg" xmlns:xlink="http://www.w3.org/1999/xlink" width="500" zoomAndPan="magnify" viewBox="0 0 375 149.999998" height="200" preserveAspectRatio="xMidYMid meet" version="1.0"><defs><filter x="0%" y="0%" width="100%" height="100%" id="b3228c1a80"><feColorMatrix values="0 0 0 0 1 0 0 0 0 1 0 0 0 0 1 0 0 0 1 0" color-interpolation-filters="sRGB"/></filter><g/><clipPath id="2a4b505b77"><path d="M 10.707031 0.765625 L 139.175781 0.765625 L 139.175781 129.234375 L 10.707031 129.234375 Z M 10.707031 0.765625 " clip-rule="nonzero"/></clipPath><clipPath id="1596b752f5"><path d="M 74.941406 0.765625 C 39.464844 0.765625 10.707031 29.523438 10.707031 65 C 10.707031 100.476562 39.464844 129.234375 74.941406 129.234375 C 110.417969 129.234375 139.175781 100.476562 139.175781 65 C 139.175781 29.523438 110.417969 0.765625 74.941406 0.765625 Z M 74.941406 0.765625 " clip-rule="nonzero"/></clipPath><clipPath id="be8033ff62"><path d="M 0.707031 0.765625 L 129.175781 0.765625 L 129.175781 129.234375 L 0.707031 129.234375 Z M 0.707031 0.765625 " clip-rule="nonzero"/></clipPath><clipPath id="fc04bfb161"><path d="M 64.941406 0.765625 C 29.464844 0.765625 0.707031 29.523438 0.707031 65 C 0.707031 100.476562 29.464844 129.234375 64.941406 129.234375 C 100.417969 129.234375 129.175781 100.476562 129.175781 65 C 129.175781 29.523438 100.417969 0.765625 64.941406 0.765625 Z M 64.941406 0.765625 " clip-rule="nonzero"/></clipPath><clipPath id="b80a3d833e"><rect x="0" width="130" y="0" height="130"/></clipPath><mask id="c7cbf98e94"><g filter="url(#b3228c1a80)"><rect x="-82.5" width="540" fill="#000000" y="-42.999999" height="215.999996" fill-opacity="0.95"/></g></mask><clipPath id="3bd04afb62"><path d="M 0 0.199219 L 143.519531 0.199219 L 143.519531 2.601562 L 0 2.601562 Z M 0 0.199219 " clip-rule="nonzero"/></clipPath><clipPath id="1085a7ec4e"><rect x="0" width="144" y="0" height="3"/></clipPath><mask id="a06a2fe10a"><g filter="url(#b3228c1a80)"><rect x="-82.5" width="540" fill="#000000" y="-42.999999" height="215.999996" fill-opacity="0.95"/></g></mask><clipPath id="dc48150d7f"><path d="M 0 1 L 143.28125 1 L 143.28125 3.238281 L 0 3.238281 Z M 0 1 " clip-rule="nonzero"/></clipPath><clipPath id="cd7f6c7f5f"><rect x="0" width="144" y="0" height="4"/></clipPath><mask id="e4c9e7e2f1"><g filter="url(#b3228c1a80)"><rect x="-82.5" width="540" fill="#000000" y="-42.999999" height="215.999996" fill-opacity="0.95"/></g></mask><clipPath id="d91b026f6d"><path d="M 0 0.71875 L 143.28125 0.71875 L 143.28125 2.640625 L 0 2.640625 Z M 0 0.71875 " clip-rule="nonzero"/></clipPath><clipPath id="801f73749f"><rect x="0" width="144" y="0" height="3"/></clipPath><mask id="61f3fc5d7b"><g filter="url(#b3228c1a80)"><rect x="-82.5" width="540" fill="#000000" y="-42.999999" height="215.999996" fill-opacity="0.95"/></g></mask><clipPath id="3b726f19d4"><path d="M 0 0.359375 L 143 0.359375 L 143 2.28125 L 0 2.28125 Z M 0 0.359375 " clip-rule="nonzero"/></clipPath><clipPath id="623be6b47d"><rect x="0" width="144" y="0" height="3"/></clipPath><mask id="a6d9f0c205"><g filter="url(#b3228c1a80)"><rect x="-82.5" width="540" fill="#000000" y="-42.999999" height="215.999996" fill-opacity="0.95"/></g></mask><clipPath id="e57a339123"><path d="M 0 0.238281 L 143 0.238281 L 143 1.679688 L 0 1.679688 Z M 0 0.238281 " clip-rule="nonzero"/></clipPath><clipPath id="b564c69ed0"><rect x="0" width="144" y="0" height="2"/></clipPath><mask id="45a3091c4a"><g filter="url(#b3228c1a80)"><rect x="-82.5" width="540" fill="#000000" y="-42.999999" height="215.999996" fill-opacity="0.95"/></g></mask><clipPath id="a3519f1122"><path d="M 0 1 L 143 1 L 143 2.320312 L 0 2.320312 Z M 0 1 " clip-rule="nonzero"/></clipPath><clipPath id="f8b0fe516f"><rect x="0" width="144" y="0" height="3"/></clipPath><clipPath id="ea7b44ad70"><rect x="0" width="369" y="0" height="130"/></clipPath></defs><rect x="-37.5" width="450" fill="#ffffff" y="-15" height="179.999997" fill-opacity="1"/><rect x="-37.5" width="450" fill="#080808" y="-15" height="179.999997" fill-opacity="1"/><g transform="matrix(1, 0, 0, 1, 0, 10)"><g clip-path="url(#ea7b44ad70)"><g clip-path="url(#2a4b505b77)"><g clip-path="url(#1596b752f5)"><g transform="matrix(1, 0, 0, 1, 10, -0.000000000000007105)"><g clip-path="url(#b80a3d833e)"><g clip-path="url(#be8033ff62)"><g clip-path="url(#fc04bfb161)"><path fill="#fefefe" d="M 0.707031 0.765625 L 129.175781 0.765625 L 129.175781 129.234375 L 0.707031 129.234375 Z M 0.707031 0.765625 " fill-opacity="1" fill-rule="nonzero"/></g></g></g></g></g></g><g mask="url(#c7cbf98e94)"><g transform="matrix(1, 0, 0, 1, 0, 27)"><g clip-path="url(#1085a7ec4e)"><g clip-path="url(#3bd04afb62)"><path stroke-linecap="butt" transform="matrix(0.222092, 0, 0, 0.222092, 0.13534, 0.234783)" fill="none" stroke-linejoin="miter" d="M 0.00620607 4.99328 L 639.996514 4.99328 " stroke="#080808" stroke-width="10" stroke-opacity="1" stroke-miterlimit="4"/></g></g></g></g><g mask="url(#a06a2fe10a)"><g transform="matrix(1, 0, 0, 1, 0, 41)"><g clip-path="url(#cd7f6c7f5f)"><g clip-path="url(#dc48150d7f)"><path stroke-linecap="butt" transform="matrix(0.222092, 0, 0, 0.222092, 0.000003125, 1.0039)" fill="none" stroke-linejoin="miter" d="M -0.0000140707 4.502665 L 640.007883 4.502665 " stroke="#080808" stroke-width="9" stroke-opacity="1" stroke-miterlimit="4"/></g></g></g></g><g mask="url(#e4c9e7e2f1)"><g transform="matrix(1, 0, 0, 1, 0, 56)"><g clip-path="url(#801f73749f)"><g clip-path="url(#d91b026f6d)"><path stroke-linecap="butt" transform="matrix(0.222092, 0, 0, 0.222092, 0.13534, 0.773018)" fill="none" stroke-linejoin="miter" d="M 0.00620607 3.994463 L 639.996514 3.994463 " stroke="#080808" stroke-width="8" stroke-opacity="1" stroke-miterlimit="4"/></g></g></g></g><g mask="url(#61f3fc5d7b)"><g transform="matrix(1, 0, 0, 1, 0, 71)"><g clip-path="url(#623be6b47d)"><g clip-path="url(#3b726f19d4)"><path stroke-linecap="butt" transform="matrix(0.222092, 0, 0, 0.222092, 0.000003125, 0.542136)" fill="none" stroke-linejoin="miter" d="M -0.0000140707 3.503848 L 640.007883 3.503848 " stroke="#080808" stroke-width="7" stroke-opacity="1" stroke-miterlimit="4"/></g></g></g></g><g mask="url(#a6d9f0c205)"><g transform="matrix(1, 0, 0, 1, 0, 86)"><g clip-path="url(#b564c69ed0)"><g clip-path="url(#e57a339123)"><path stroke-linecap="butt" transform="matrix(0.222092, 0, 0, 0.222092, 0.13534, 0.311254)" fill="none" stroke-linejoin="miter" d="M 0.00620607 2.995645 L 639.996514 2.995645 " stroke="#080808" stroke-width="6" stroke-opacity="1" stroke-miterlimit="4"/></g></g></g></g><g mask="url(#45a3091c4a)"><g transform="matrix(1, 0, 0, 1, 0, 100)"><g clip-path="url(#f8b0fe516f)"><g clip-path="url(#a3519f1122)"><path stroke-linecap="butt" transform="matrix(0.222092, 0, 0, 0.222092, 0.13534, 1.080371)" fill="none" stroke-linejoin="miter" d="M 0.00620607 2.505031 L 639.996514 2.505031 " stroke="#080808" stroke-width="5" stroke-opacity="1" stroke-miterlimit="4"/></g></g></g></g><g fill="#ffffff" fill-opacity="1"><g transform="translate(151.566042, 104.638627)"><g><path d="M 15.953125 0.359375 C 13.359375 0.359375 11.035156 -0.0625 8.984375 -0.90625 C 6.929688 -1.75 5.289062 -2.992188 4.0625 -4.640625 C 2.832031 -6.296875 2.1875 -8.285156 2.125 -10.609375 L 11.3125 -10.609375 C 11.445312 -9.296875 11.898438 -8.289062 12.671875 -7.59375 C 13.441406 -6.90625 14.453125 -6.5625 15.703125 -6.5625 C 16.984375 -6.5625 17.992188 -6.851562 18.734375 -7.4375 C 19.472656 -8.03125 19.84375 -8.847656 19.84375 -9.890625 C 19.84375 -10.765625 19.546875 -11.488281 18.953125 -12.0625 C 18.367188 -12.632812 17.644531 -13.101562 16.78125 -13.46875 C 15.925781 -13.84375 14.707031 -14.265625 13.125 -14.734375 C 10.832031 -15.441406 8.960938 -16.148438 7.515625 -16.859375 C 6.066406 -17.566406 4.820312 -18.609375 3.78125 -19.984375 C 2.738281 -21.367188 2.21875 -23.171875 2.21875 -25.390625 C 2.21875 -28.691406 3.410156 -31.273438 5.796875 -33.140625 C 8.191406 -35.003906 11.304688 -35.9375 15.140625 -35.9375 C 19.046875 -35.9375 22.191406 -35.003906 24.578125 -33.140625 C 26.972656 -31.273438 28.253906 -28.675781 28.421875 -25.34375 L 19.078125 -25.34375 C 19.015625 -26.488281 18.59375 -27.390625 17.8125 -28.046875 C 17.039062 -28.703125 16.050781 -29.03125 14.84375 -29.03125 C 13.800781 -29.03125 12.957031 -28.75 12.3125 -28.1875 C 11.675781 -27.632812 11.359375 -26.835938 11.359375 -25.796875 C 11.359375 -24.648438 11.894531 -23.753906 12.96875 -23.109375 C 14.050781 -22.472656 15.734375 -21.785156 18.015625 -21.046875 C 20.304688 -20.273438 22.164062 -19.535156 23.59375 -18.828125 C 25.03125 -18.117188 26.269531 -17.09375 27.3125 -15.75 C 28.351562 -14.40625 28.875 -12.671875 28.875 -10.546875 C 28.875 -8.523438 28.359375 -6.691406 27.328125 -5.046875 C 26.304688 -3.398438 24.816406 -2.085938 22.859375 -1.109375 C 20.910156 -0.128906 18.609375 0.359375 15.953125 0.359375 Z M 15.953125 0.359375 "/></g></g></g><g fill="#ffffff" fill-opacity="1"><g transform="translate(187.402981, 104.638627)"><g><path d="M 28.625 -35.4375 L 28.625 -28.53125 L 19.234375 -28.53125 L 19.234375 0 L 10.609375 0 L 10.609375 -28.53125 L 1.21875 -28.53125 L 1.21875 -35.4375 Z M 28.625 -35.4375 "/></g></g></g><g fill="#ffffff" fill-opacity="1"><g transform="translate(222.028547, 104.638627)"><g><path d="M 11.609375 -35.4375 L 11.609375 -14.234375 C 11.609375 -12.117188 12.128906 -10.488281 13.171875 -9.34375 C 14.210938 -8.195312 15.742188 -7.625 17.765625 -7.625 C 19.785156 -7.625 21.332031 -8.195312 22.40625 -9.34375 C 23.488281 -10.488281 24.03125 -12.117188 24.03125 -14.234375 L 24.03125 -35.4375 L 32.65625 -35.4375 L 32.65625 -14.28125 C 32.65625 -11.125 31.984375 -8.453125 30.640625 -6.265625 C 29.296875 -4.078125 27.488281 -2.425781 25.21875 -1.3125 C 22.945312 -0.195312 20.414062 0.359375 17.625 0.359375 C 14.820312 0.359375 12.316406 -0.1875 10.109375 -1.28125 C 7.910156 -2.375 6.171875 -4.023438 4.890625 -6.234375 C 3.617188 -8.441406 2.984375 -11.125 2.984375 -14.28125 L 2.984375 -35.4375 Z M 11.609375 -35.4375 "/></g></g></g><g fill="#ffffff" fill-opacity="1"><g transform="translate(262.408135, 104.638627)"><g><path d="M 16.40625 -35.4375 C 20.144531 -35.4375 23.410156 -34.695312 26.203125 -33.21875 C 28.992188 -31.738281 31.15625 -29.660156 32.6875 -26.984375 C 34.21875 -24.304688 34.984375 -21.21875 34.984375 -17.71875 C 34.984375 -14.25 34.21875 -11.164062 32.6875 -8.46875 C 31.15625 -5.78125 28.984375 -3.695312 26.171875 -2.21875 C 23.359375 -0.738281 20.101562 0 16.40625 0 L 3.125 0 L 3.125 -35.4375 Z M 15.859375 -7.46875 C 19.117188 -7.46875 21.65625 -8.359375 23.46875 -10.140625 C 25.289062 -11.929688 26.203125 -14.457031 26.203125 -17.71875 C 26.203125 -20.976562 25.289062 -23.515625 23.46875 -25.328125 C 21.65625 -27.148438 19.117188 -28.0625 15.859375 -28.0625 L 11.765625 -28.0625 L 11.765625 -7.46875 Z M 15.859375 -7.46875 "/></g></g></g><g fill="#ffffff" fill-opacity="1"><g transform="translate(303.898156, 104.638627)"><g><path d="M 11.765625 -35.4375 L 11.765625 0 L 3.125 0 L 3.125 -35.4375 Z M 11.765625 -35.4375 "/></g></g></g><g fill="#ffffff" fill-opacity="1"><g transform="translate(323.583444, 104.638627)"><g><path d="M 19.890625 0.359375 C 16.554688 0.359375 13.5 -0.414062 10.71875 -1.96875 C 7.945312 -3.519531 5.742188 -5.679688 4.109375 -8.453125 C 2.484375 -11.234375 1.671875 -14.359375 1.671875 -17.828125 C 1.671875 -21.285156 2.484375 -24.394531 4.109375 -27.15625 C 5.742188 -29.914062 7.945312 -32.066406 10.71875 -33.609375 C 13.5 -35.160156 16.554688 -35.9375 19.890625 -35.9375 C 23.222656 -35.9375 26.273438 -35.160156 29.046875 -33.609375 C 31.828125 -32.066406 34.015625 -29.914062 35.609375 -27.15625 C 37.210938 -24.394531 38.015625 -21.285156 38.015625 -17.828125 C 38.015625 -14.359375 37.207031 -11.234375 35.59375 -8.453125 C 33.976562 -5.679688 31.789062 -3.519531 29.03125 -1.96875 C 26.269531 -0.414062 23.222656 0.359375 19.890625 0.359375 Z M 19.890625 -7.515625 C 22.710938 -7.515625 24.972656 -8.457031 26.671875 -10.34375 C 28.378906 -12.226562 29.234375 -14.722656 29.234375 -17.828125 C 29.234375 -20.953125 28.378906 -23.445312 26.671875 -25.3125 C 24.972656 -27.1875 22.710938 -28.125 19.890625 -28.125 C 17.023438 -28.125 14.742188 -27.195312 13.046875 -25.34375 C 11.347656 -23.488281 10.5 -20.984375 10.5 -17.828125 C 10.5 -14.691406 11.347656 -12.1875 13.046875 -10.3125 C 14.742188 -8.445312 17.023438 -7.515625 19.890625 -7.515625 Z M 19.890625 -7.515625 "/></g></g></g><g fill="#ffffff" fill-opacity="1"><g transform="translate(153.501691, 60.149036)"><g><path d="M 18.609375 -7.234375 L 18.609375 0 L 14.265625 0 C 11.171875 0 8.757812 -0.753906 7.03125 -2.265625 C 5.300781 -3.785156 4.4375 -6.253906 4.4375 -9.671875 L 4.4375 -20.75 L 1.046875 -20.75 L 1.046875 -27.84375 L 4.4375 -27.84375 L 4.4375 -34.625 L 12.96875 -34.625 L 12.96875 -27.84375 L 18.5625 -27.84375 L 18.5625 -20.75 L 12.96875 -20.75 L 12.96875 -9.578125 C 12.96875 -8.742188 13.164062 -8.144531 13.5625 -7.78125 C 13.96875 -7.414062 14.632812 -7.234375 15.5625 -7.234375 Z M 18.609375 -7.234375 "/></g></g></g><g fill="#ffffff" fill-opacity="1"><g transform="translate(177.994961, 60.149036)"><g><path d="M 1.390625 -13.96875 C 1.390625 -16.832031 1.929688 -19.34375 3.015625 -21.5 C 4.097656 -23.664062 5.570312 -25.328125 7.4375 -26.484375 C 9.300781 -27.648438 11.378906 -28.234375 13.671875 -28.234375 C 15.628906 -28.234375 17.347656 -27.832031 18.828125 -27.03125 C 20.304688 -26.238281 21.445312 -25.191406 22.25 -23.890625 L 22.25 -27.84375 L 30.78125 -27.84375 L 30.78125 0 L 22.25 0 L 22.25 -3.9375 C 21.414062 -2.644531 20.257812 -1.597656 18.78125 -0.796875 C 17.300781 0.00390625 15.582031 0.40625 13.625 0.40625 C 11.363281 0.40625 9.300781 -0.179688 7.4375 -1.359375 C 5.570312 -2.546875 4.097656 -4.226562 3.015625 -6.40625 C 1.929688 -8.582031 1.390625 -11.101562 1.390625 -13.96875 Z M 22.25 -13.921875 C 22.25 -16.046875 21.65625 -17.722656 20.46875 -18.953125 C 19.289062 -20.179688 17.859375 -20.796875 16.171875 -20.796875 C 14.472656 -20.796875 13.03125 -20.1875 11.84375 -18.96875 C 10.664062 -17.757812 10.078125 -16.09375 10.078125 -13.96875 C 10.078125 -11.84375 10.664062 -10.15625 11.84375 -8.90625 C 13.03125 -7.65625 14.472656 -7.03125 16.171875 -7.03125 C 17.859375 -7.03125 19.289062 -7.644531 20.46875 -8.875 C 21.65625 -10.101562 22.25 -11.785156 22.25 -13.921875 Z M 22.25 -13.921875 "/></g></g></g><g fill="#ffffff" fill-opacity="1"><g transform="translate(216.106548, 60.149036)"><g><path d="M 11.625 -23.890625 C 12.425781 -25.191406 13.570312 -26.238281 15.0625 -27.03125 C 16.5625 -27.832031 18.273438 -28.234375 20.203125 -28.234375 C 22.492188 -28.234375 24.570312 -27.648438 26.4375 -26.484375 C 28.300781 -25.328125 29.773438 -23.664062 30.859375 -21.5 C 31.941406 -19.34375 32.484375 -16.832031 32.484375 -13.96875 C 32.484375 -11.101562 31.941406 -8.582031 30.859375 -6.40625 C 29.773438 -4.226562 28.300781 -2.546875 26.4375 -1.359375 C 24.570312 -0.179688 22.492188 0.40625 20.203125 0.40625 C 18.242188 0.40625 16.53125 0.015625 15.0625 -0.765625 C 13.601562 -1.554688 12.457031 -2.597656 11.625 -3.890625 L 11.625 0 L 3.09375 0 L 3.09375 -36.921875 L 11.625 -36.921875 Z M 23.796875 -13.96875 C 23.796875 -16.09375 23.203125 -17.757812 22.015625 -18.96875 C 20.835938 -20.1875 19.382812 -20.796875 17.65625 -20.796875 C 15.957031 -20.796875 14.519531 -20.179688 13.34375 -18.953125 C 12.164062 -17.722656 11.578125 -16.046875 11.578125 -13.921875 C 11.578125 -11.785156 12.164062 -10.101562 13.34375 -8.875 C 14.519531 -7.644531 15.957031 -7.03125 17.65625 -7.03125 C 19.351562 -7.03125 20.800781 -7.65625 22 -8.90625 C 23.195312 -10.15625 23.796875 -11.84375 23.796875 -13.96875 Z M 23.796875 -13.96875 "/></g></g></g></g></g></svg>